<svg xmlns="http://www.w3.org/2000/svg" width="99" height="40" viewBox="0 0 99 40" fill="none">
<mask id="mask0_139_406" style="mask-type:luminance" maskUnits="userSpaceOnUse" x="64" y="0" width="32" height="25">
<path d="M95.172 0H64.2476V24.5878H95.172V0Z" fill="white"/>
</mask>
<g mask="url(#mask0_139_406)">
<path d="M80.8665 12.2994C80.4028 13.0117 79.7186 14.3876 79.7186 14.3876C79.7186 14.3876 79.0319 13.0117 78.5707 12.2994C78.8961 11.5947 79.2728 10.9234 79.7109 10.2931C79.7161 10.2982 79.7161 10.3008 79.7186 10.3059C79.7238 10.3008 79.7238 10.2982 79.7263 10.2931C80.1645 10.9234 80.5411 11.5947 80.8665 12.2994ZM94.9874 9.89336C95.0771 9.50389 95.1283 9.10417 95.1283 8.69932C95.1283 8.52252 95.1181 8.34829 95.1001 8.17661C88.5099 8.5584 84.9534 11.8305 83.3161 14.0007C83.1649 13.4755 82.9984 12.9681 82.8062 12.4736C84.7331 9.84467 88.2075 6.85959 94.2956 5.80649C93.983 5.27865 93.5858 4.77132 93.1143 4.29217C87.5721 5.45289 84.1155 8.15612 82.0068 10.7415C81.6583 10.0932 81.2663 9.46801 80.823 8.87612C82.0401 7.46429 85.6606 3.77202 91.0235 2.63948C90.3368 2.21158 89.5809 1.82211 88.761 1.47876C84.1591 2.98539 81.0408 6.02172 79.7212 7.52066C78.4016 6.01916 75.2782 2.98027 70.6711 1.4762C69.8512 1.81954 69.0928 2.20901 68.4035 2.63692C73.7741 3.76433 77.3997 7.46173 78.6194 8.87356C78.1787 9.46801 77.7841 10.0907 77.4356 10.7389C75.3217 8.15099 71.8626 5.4452 66.3101 4.28704C65.8386 4.76619 65.4415 5.27353 65.1263 5.80392C71.2246 6.85447 74.7042 9.84211 76.6336 12.4736C76.4414 12.9681 76.2723 13.478 76.1237 14.0007C74.4839 11.8305 70.9222 8.55327 64.3192 8.17661C64.3013 8.35085 64.291 8.52509 64.291 8.70189C64.291 9.10673 64.3423 9.50389 64.4319 9.89336C72.2803 10.4263 75.1731 15.4817 75.6523 16.4452V43.7977H77.3664V16.8039V16.3145C77.3741 16.2555 77.3844 16.1992 77.3972 16.1402C77.4997 15.5253 77.638 14.9283 77.8097 14.3518C78.5041 15.6637 78.7885 16.6655 78.8551 16.9448V43.7977H79.7212H80.5872V16.9422C80.6564 16.6655 80.9383 15.6611 81.6327 14.3492C81.8043 14.9257 81.9427 15.5253 82.0452 16.1377C82.058 16.1966 82.0657 16.253 82.0759 16.3119V16.8039V43.7952H83.7901V16.4426C84.2667 15.4792 87.157 10.434 94.9874 9.89336Z" fill="#FFFFFF"/>
</g>
<mask id="mask1_139_406" style="mask-type:luminance" maskUnits="userSpaceOnUse" x="64" y="0" width="32" height="25">
<path d="M95.172 0H64.2476V24.5878H95.172V0Z" fill="white"/>
</mask>
<g mask="url(#mask1_139_406)">
<path d="M80.2853 4.24061L79.737 4.6967L79.7191 4.71207L79.7012 4.6967L79.1528 4.24061C79.1016 4.19449 79.0247 4.12531 78.9273 4.0305C78.3047 3.46167 76.6828 1.97297 73.5337 0.520147C74.4049 0.299789 75.317 0.12299 76.2651 0C77.9767 0.973674 79.0836 1.88073 79.7216 2.44444C80.3571 1.88073 81.4666 0.976237 83.1756 0.00256236C84.1211 0.128115 85.0333 0.304914 85.9019 0.525272C82.7554 1.9781 81.136 3.46423 80.516 4.03306C80.4135 4.1253 80.3366 4.19449 80.2853 4.24061Z" fill="#FFFFFF"/>
</g>
<mask id="mask2_139_406" style="mask-type:luminance" maskUnits="userSpaceOnUse" x="64" y="15" width="32" height="26">
<path d="M95.0797 15.4122H64.1553V40.0001H95.0797V15.4122Z" fill="white"/>
</mask>
<g mask="url(#mask2_139_406)">
<path d="M78.4605 27.701C78.9243 26.9887 79.6084 25.6127 79.6084 25.6127C79.6084 25.6127 80.2951 26.9887 80.7563 27.701C80.4309 28.4056 80.0543 29.077 79.6161 29.7073C79.611 29.7022 79.611 29.6996 79.6084 29.6945C79.6033 29.6996 79.6033 29.7022 79.6007 29.7073C79.1626 29.0744 78.7859 28.4056 78.4605 27.701ZM64.3397 30.107C64.25 30.4965 64.1987 30.8962 64.1987 31.301C64.1987 31.4778 64.209 31.6521 64.2269 31.8237C70.8172 31.442 74.3736 28.1699 76.0109 25.9996C76.1621 26.5249 76.3287 27.0322 76.5208 27.5268C74.594 30.1557 71.1195 33.1408 65.0315 34.1939C65.3441 34.7217 65.7412 35.229 66.2127 35.7082C71.755 34.5475 75.2115 31.8442 77.3203 29.2589C77.6687 29.9072 78.0608 30.5323 78.5041 31.1242C77.287 32.5361 73.6664 36.2283 68.3035 37.3609C68.9902 37.7888 69.7461 38.1783 70.5661 38.5216C75.1679 37.015 78.2863 33.9786 79.6059 32.4797C80.9254 33.9812 84.0489 37.0201 88.6559 38.5242C89.4759 38.1808 90.2343 37.7913 90.9235 37.3634C85.553 36.236 81.9273 32.5386 80.7076 31.1268C81.1484 30.5323 81.543 29.9097 81.8914 29.2614C84.0053 31.8494 87.4644 34.5552 93.0169 35.7133C93.4884 35.2342 93.8856 34.7268 94.2007 34.1964C88.1024 33.1459 84.6228 30.1582 82.6934 27.5268C82.8856 27.0322 83.0547 26.5223 83.2033 25.9996C84.8432 28.1699 88.4048 31.4471 95.0079 31.8237C95.0258 31.6495 95.036 31.4753 95.036 31.2985C95.036 30.8936 94.9848 30.4965 94.8951 30.107C87.0468 29.574 84.1539 24.5186 83.6748 23.5552V-3.7948H81.9606V23.1965V23.6884C81.9529 23.7474 81.9427 23.8037 81.9299 23.8627C81.8274 24.4776 81.689 25.0746 81.5173 25.6512C80.8229 24.3393 80.5385 23.3374 80.4719 23.0581V-3.79736H79.6059H78.7398V23.0556C78.6706 23.3323 78.3888 24.3367 77.6944 25.6486C77.5227 25.0721 77.3843 24.4725 77.2819 23.8601C77.269 23.8012 77.2614 23.7448 77.2511 23.6859V23.1939V-3.7948H75.5369V23.5578C75.0603 24.5212 72.1726 29.5664 64.3397 30.107Z" fill="#FFFFFF"/>
</g>
<mask id="mask3_139_406" style="mask-type:luminance" maskUnits="userSpaceOnUse" x="64" y="15" width="32" height="26">
<path d="M95.0797 15.4122H64.1553V40.0001H95.0797V15.4122Z" fill="white"/>
</mask>
<g mask="url(#mask3_139_406)">
<path d="M79.0423 35.7578L79.5907 35.3018L79.6086 35.2864L79.6265 35.3018L80.1749 35.7578C80.2261 35.804 80.303 35.8731 80.4004 35.9679C81.023 36.5368 82.6449 38.0255 85.794 39.4783C84.9228 39.6987 84.0106 39.8755 83.0626 39.9984C81.351 39.0248 80.2441 38.1177 79.6061 37.554C78.9706 38.1177 77.8611 39.0222 76.1521 39.9959C75.2066 39.8703 74.2944 39.6935 73.4258 39.4732C76.5723 38.0204 78.1917 36.5342 78.8117 35.9654C78.9142 35.8757 78.9911 35.8065 79.0423 35.7578Z" fill="#FFFFFF"/>
</g>
<mask id="mask4_139_406" style="mask-type:luminance" maskUnits="userSpaceOnUse" x="60" y="15" width="9" height="10">
<path d="M68.2066 15.079H60.3301V24.4903H68.2066V15.079Z" fill="white"/>
</mask>
<g mask="url(#mask4_139_406)">
<path d="M61.2575 24.0936C61.3907 24.36 61.7161 24.4702 61.9826 24.3344C62.2491 24.1986 62.3593 23.8758 62.2235 23.6093C61.6675 22.4998 61.3626 21.1777 61.3626 19.794C61.3626 18.4155 61.6675 17.1446 62.2286 15.9711C62.3567 15.702 62.244 15.3792 61.9749 15.2485C61.7059 15.1204 61.3831 15.2331 61.2549 15.5022C60.6246 16.8166 60.2813 18.249 60.2813 19.7915C60.2787 21.3314 60.622 22.8227 61.2575 24.0936ZM63.192 23.2044C63.3125 23.4786 63.6328 23.6016 63.9069 23.4786C64.1785 23.3582 64.3041 23.0379 64.1811 22.7637C63.7762 21.8516 63.5251 20.7908 63.5251 19.7915C63.5251 18.7973 63.7737 17.7903 64.1811 16.873C64.3015 16.5988 64.1811 16.2811 63.9069 16.1581C63.6353 16.0377 63.315 16.1607 63.192 16.4323C62.7334 17.4623 62.4438 18.6205 62.4438 19.7889C62.4438 20.9599 62.7334 22.1718 63.192 23.2044ZM65.8773 22.4947C65.6109 22.6279 65.2854 22.5203 65.1522 22.2538C64.7832 21.5159 64.609 20.6191 64.609 19.794C64.609 18.9587 64.7883 18.126 65.1445 17.3496C65.2701 17.0805 65.5904 16.9601 65.862 17.0857C66.1336 17.2112 66.2514 17.5315 66.1284 17.8031C65.8363 18.4334 65.6903 19.115 65.6903 19.794C65.6903 20.4833 65.8389 21.2084 66.1207 21.7696C66.2514 22.036 66.1438 22.3615 65.8773 22.4947ZM67.0842 21.3058C67.202 21.58 67.5198 21.7081 67.7939 21.5902C68.0681 21.4723 68.1962 21.1546 68.0783 20.8804C67.9425 20.5653 67.8529 20.1502 67.8529 19.7966C67.8529 19.4507 67.94 19.0894 68.0783 18.7665C68.1962 18.4924 68.0681 18.1747 67.7939 18.0568C67.5198 17.9389 67.202 18.067 67.0842 18.3412C66.8997 18.7742 66.769 19.279 66.769 19.7991C66.769 20.3039 66.8946 20.8625 67.0842 21.3058Z" fill="#FFFFFF"/>
</g>
<mask id="mask5_139_406" style="mask-type:luminance" maskUnits="userSpaceOnUse" x="91" y="15" width="9" height="10">
<path d="M99.0003 15.079H91.1699V24.4903H99.0003V15.079Z" fill="white"/>
</mask>
<g mask="url(#mask5_139_406)">
<path d="M98.0727 24.0936C97.9395 24.36 97.6141 24.4702 97.3476 24.3344C97.0811 24.1986 96.9709 23.8758 97.1067 23.6093C97.6627 22.4998 97.9676 21.1777 97.9676 19.794C97.9676 18.4155 97.6627 17.1446 97.1016 15.9711C96.9735 15.702 97.0862 15.3792 97.3553 15.2485C97.6243 15.1204 97.9471 15.2331 98.0753 15.5022C98.7056 16.8166 99.0489 18.249 99.0489 19.7915C99.0515 21.3314 98.7082 22.8227 98.0727 24.0936ZM96.1382 23.2044C96.0177 23.4786 95.6975 23.6016 95.4233 23.4786C95.1517 23.3582 95.0261 23.0379 95.1491 22.7637C95.554 21.8516 95.8051 20.7908 95.8051 19.7915C95.8051 18.7973 95.5565 17.7903 95.1491 16.873C95.0287 16.5988 95.1491 16.2811 95.4233 16.1581C95.6949 16.0377 96.0152 16.1607 96.1382 16.4323C96.5968 17.4623 96.8864 18.6205 96.8864 19.7889C96.8864 20.9599 96.5968 22.1718 96.1382 23.2044ZM93.4529 22.4947C93.7194 22.6279 94.0448 22.5203 94.178 22.2538C94.547 21.5159 94.7212 20.6191 94.7212 19.794C94.7212 18.9587 94.5418 18.126 94.1857 17.3496C94.0601 17.0805 93.7399 16.9601 93.4682 17.0857C93.1966 17.2112 93.0788 17.5315 93.2018 17.8031C93.4939 18.4334 93.6399 19.115 93.6399 19.794C93.6399 20.4833 93.4913 21.2084 93.2095 21.7696C93.0788 22.036 93.1864 22.3615 93.4529 22.4947ZM92.246 21.3058C92.1282 21.58 91.8104 21.7081 91.5363 21.5902C91.2621 21.4723 91.134 21.1546 91.2518 20.8804C91.3877 20.5653 91.4773 20.1502 91.4773 19.7966C91.4773 19.4507 91.3902 19.0894 91.2518 18.7665C91.134 18.4924 91.2621 18.1747 91.5363 18.0568C91.8104 17.9389 92.1282 18.067 92.246 18.3412C92.4305 18.7742 92.5612 19.279 92.5612 19.7991C92.5612 20.3039 92.4356 20.8625 92.246 21.3058Z" fill="#FFFFFF"/>
</g>
<path d="M53.1602 32.1749V11.1051" stroke="#FFFFFF" stroke-width="0.768332"/>
<path d="M4.2487 16.1785V16.9446H2.03487C1.61978 16.9446 1.29437 16.901 1.05607 16.8139C0.817778 16.7268 0.640981 16.5654 0.525678 16.3348C0.410374 16.1016 0.354004 15.7659 0.354004 15.3227C0.354004 14.8999 0.407812 14.577 0.517991 14.3541C0.625608 14.1312 0.802406 13.9749 1.04582 13.8826C1.28924 13.793 1.63003 13.7468 2.06818 13.7468C2.30135 13.7468 2.58321 13.7545 2.90862 13.7725C3.23403 13.7904 3.46464 13.8083 3.59788 13.8288V16.181H4.2487V16.1785ZM1.197 15.3201C1.197 15.5533 1.22775 15.7326 1.28668 15.8556C1.34818 15.9786 1.44042 16.0632 1.56597 16.1093C1.69152 16.1554 1.8632 16.1785 2.08099 16.1785H2.75744V14.5412C2.54733 14.5207 2.32954 14.5104 2.09893 14.5104C1.86832 14.5104 1.69153 14.5335 1.56341 14.5796C1.4353 14.6257 1.34305 14.7051 1.28412 14.8204C1.22518 14.9383 1.197 15.1023 1.197 15.3201ZM1.34049 12.4426H1.98619V13.2267H1.34049V12.4426ZM2.29366 12.4426H2.93937V13.2267H2.29366V12.4426Z" fill="#FFFFFF"/>
<path d="M5.81666 16.1786H4.24854V16.9447H5.81666V16.1786Z" fill="#FFFFFF"/>
<path d="M7.38503 16.1786H5.81689V16.9447H7.38503V16.1786Z" fill="#FFFFFF"/>
<path d="M8.95289 16.1786H7.38477V16.9447H8.95289V16.1786Z" fill="#FFFFFF"/>
<path d="M10.5188 16.1786H8.95068V16.9447H10.5188V16.1786Z" fill="#FFFFFF"/>
<path d="M12.0867 16.1786H10.5186V16.9447H12.0867V16.1786Z" fill="#FFFFFF"/>
<path d="M13.655 16.1786H12.0869V16.9447H13.655V16.1786Z" fill="#FFFFFF"/>
<path d="M15.2229 16.1786H13.6548V16.9447H15.2229V16.1786Z" fill="#FFFFFF"/>
<path d="M17.4904 16.1788V16.9449H15.2202V16.1788H15.9915V12.5557H16.8319V16.1788H17.4904Z" fill="#FFFFFF"/>
<path d="M21.3417 16.1791V16.9452H17.4932V16.1791H19.8582V15.0004C19.8582 14.821 19.8197 14.6852 19.7429 14.5956C19.666 14.5059 19.5328 14.4598 19.3457 14.4598C18.9614 14.4726 18.6257 14.4854 18.3413 14.4982L18.021 14.511L17.9954 13.9524C18.2132 13.8935 18.4771 13.8448 18.7846 13.8038C19.0946 13.7654 19.356 13.7449 19.5686 13.7449C19.9607 13.7449 20.2476 13.8269 20.4244 13.9934C20.6012 14.1574 20.6935 14.4213 20.696 14.78V16.1791H21.3417ZM19.0408 12.4125H19.8121V13.2273H19.0408V12.4125Z" fill="#FFFFFF"/>
<path d="M24.0554 16.1791V16.9452H21.3394V16.1791H22.2746V13.8089H23.115V16.1791H24.0554ZM22.3002 12.4125H23.0715V13.2273H22.3002V12.4125Z" fill="#FFFFFF"/>
<path d="M25.6669 12.5557V16.9449H24.0552V16.1788H24.8264V12.5557H25.6669Z" fill="#FFFFFF"/>
<path d="M27.5118 12.5557H26.6714V16.9449H27.5118V12.5557Z" fill="#FFFFFF"/>
<path d="M33.3716 16.9453H32.5824C32.4902 17.983 32.0546 18.5006 31.2782 18.5006C31.0527 18.5006 30.6889 18.4596 30.1867 18.3827V17.6217C30.6889 17.696 31.0271 17.7345 31.2013 17.7345C31.3346 17.7345 31.4396 17.7114 31.5139 17.6653C31.5882 17.6192 31.6446 17.5397 31.6805 17.427C31.7164 17.3143 31.7343 17.1528 31.7343 16.9453H31.0066C30.1406 16.9453 29.7075 16.4559 29.7075 15.4771C29.7075 14.98 29.7639 14.6008 29.8741 14.342C29.9842 14.0832 30.1405 13.909 30.3455 13.8193C30.548 13.7296 30.8144 13.6835 31.145 13.6835C31.3884 13.6835 31.6446 13.6988 31.9162 13.7296C32.1878 13.7603 32.4159 13.7988 32.6004 13.8398V16.1792H33.3716V16.9453ZM30.5505 15.4284C30.5505 15.6411 30.5966 15.8204 30.6889 15.9639C30.7811 16.1074 30.9656 16.1792 31.2398 16.1792H31.7599V14.4803C31.6011 14.4598 31.4473 14.4496 31.3013 14.4496C31.1245 14.4496 30.9861 14.4727 30.8811 14.5213C30.776 14.57 30.694 14.6623 30.6376 14.8032C30.5813 14.9441 30.5505 15.1517 30.5505 15.4284Z" fill="#FFFFFF"/>
<path d="M34.9397 16.1786H33.3716V16.9447H34.9397V16.1786Z" fill="#FFFFFF"/>
<path d="M36.5081 16.1786H34.9399V16.9447H36.5081V16.1786Z" fill="#FFFFFF"/>
<path d="M38.281 13.8082V16.9419H36.5054V16.1758H37.4406V13.8057H38.281V13.8082ZM37.0716 17.4467H37.7173V18.2308H37.0716V17.4467ZM38.0248 17.4467H38.6705V18.2308H38.0248V17.4467Z" fill="#FFFFFF"/>
<path d="M40.1441 13.6649C40.4772 13.6649 40.7719 13.7469 41.0256 13.9135C41.2792 14.0774 41.474 14.326 41.6149 14.6565C41.7558 14.9871 41.825 15.3919 41.825 15.8736V16.9447H38.9731V16.1785H40.9846V15.9531C40.9846 15.4098 40.8821 15.0229 40.6771 14.7898C40.4721 14.5566 40.2287 14.4413 39.9443 14.4413H39.3114L39.2499 13.7828C39.3805 13.7546 39.5266 13.7264 39.6932 13.7008C39.8546 13.6777 40.0058 13.6649 40.1441 13.6649Z" fill="#FFFFFF"/>
<path d="M43.3546 12.5557H42.5142V16.9449H43.3546V12.5557Z" fill="#FFFFFF"/>
<path d="M44.6256 18.4997C44.5718 18.4997 44.4181 18.492 44.167 18.4741V17.7207L44.3797 17.7336C44.5308 17.7336 44.6436 17.6746 44.7179 17.5542C44.7922 17.4338 44.8306 17.2672 44.8306 17.0494V13.8081H45.6711V16.9059C45.6711 17.4081 45.5839 17.7976 45.4097 18.0795C45.2406 18.3588 44.9767 18.4997 44.6256 18.4997Z" fill="#FFFFFF"/>
<path d="M22.7576 26.5676C22.4692 26.5676 22.2497 26.486 22.0992 26.323C21.9488 26.16 21.8735 25.9218 21.8735 25.6083C21.8735 25.4035 21.9091 25.2363 21.9801 25.1067C22.0512 24.9772 22.1578 24.8789 22.2999 24.8121C22.4462 24.741 22.6259 24.6971 22.8391 24.6804L23.8046 24.5863V24.3168C23.8046 24.1036 23.7565 23.9531 23.6604 23.8653C23.5684 23.7776 23.4305 23.7337 23.2466 23.7337C23.1421 23.7337 23.0167 23.7379 22.8704 23.7462C22.7283 23.7546 22.5862 23.765 22.4441 23.7776C22.302 23.7901 22.1766 23.8026 22.0679 23.8152L22.0428 23.4453C22.1431 23.4244 22.2643 23.4035 22.4065 23.3826C22.5486 23.3617 22.6969 23.345 22.8516 23.3324C23.0063 23.3157 23.1484 23.3073 23.2779 23.3073C23.5162 23.3073 23.7105 23.345 23.861 23.4202C24.0115 23.4912 24.1202 23.602 24.187 23.7525C24.2581 23.8988 24.2936 24.0869 24.2936 24.3168V25.903C24.302 25.9949 24.3375 26.0618 24.4002 26.1036C24.4671 26.1454 24.5507 26.1726 24.651 26.1851L24.6322 26.5676C24.5402 26.5676 24.4566 26.5613 24.3814 26.5487C24.3062 26.5404 24.2351 26.5258 24.1682 26.5049C24.1139 26.484 24.0616 26.4589 24.0115 26.4296C23.9655 26.4004 23.9195 26.3648 23.8736 26.323C23.7941 26.3565 23.6917 26.392 23.5663 26.4296C23.4451 26.4672 23.3135 26.4986 23.1714 26.5237C23.0334 26.5529 22.8955 26.5676 22.7576 26.5676ZM22.8391 26.16C22.9519 26.16 23.0689 26.1496 23.1902 26.1287C23.3114 26.1078 23.4263 26.0827 23.535 26.0534C23.6437 26.0242 23.7335 25.997 23.8046 25.9719V24.95L22.8955 25.0378C22.7074 25.0545 22.5716 25.1088 22.488 25.2008C22.4085 25.2927 22.3688 25.4244 22.3688 25.5958C22.3688 25.7713 22.4085 25.9092 22.488 26.0096C22.5674 26.1099 22.6844 26.16 22.8391 26.16Z" fill="#FFFFFF"/>
<path d="M25.2138 26.5049V22.0095H25.6966V24.6553L26.1794 24.6365L27.0571 23.37H27.6151L26.6057 24.8183L27.6653 26.5049H27.1073L26.1919 25.0628L25.6966 25.0879V26.5049H25.2138Z" fill="#FFFFFF"/>
<path d="M28.2155 26.5049V22.0095H28.6982V23.5393C28.8069 23.4892 28.9511 23.439 29.1308 23.3888C29.3148 23.3345 29.4903 23.3073 29.6575 23.3073C29.9459 23.3073 30.1653 23.3596 30.3158 23.4641C30.4705 23.5644 30.575 23.7274 30.6293 23.9531C30.6878 24.1788 30.7171 24.4756 30.7171 24.8434V26.5049H30.228V24.8622C30.228 24.5905 30.2113 24.3732 30.1779 24.2102C30.1486 24.0472 30.088 23.9301 29.9961 23.8591C29.9041 23.7838 29.762 23.7462 29.5697 23.7462C29.4109 23.7462 29.25 23.7671 29.087 23.8089C28.9239 23.8507 28.7944 23.8904 28.6982 23.928V26.5049H28.2155Z" fill="#FFFFFF"/>
<path d="M31.6184 26.5049V22.0095H32.1011V26.5049H31.6184Z" fill="#FFFFFF"/>
<path d="M33.7118 26.5676C33.4234 26.5676 33.204 26.486 33.0535 26.323C32.903 26.16 32.8278 25.9218 32.8278 25.6083C32.8278 25.4035 32.8633 25.2363 32.9344 25.1067C33.0054 24.9772 33.112 24.8789 33.2541 24.8121C33.4004 24.741 33.5802 24.6971 33.7933 24.6804L34.7589 24.5863V24.3168C34.7589 24.1036 34.7108 23.9531 34.6146 23.8653C34.5227 23.7776 34.3848 23.7337 34.2009 23.7337C34.0964 23.7337 33.971 23.7379 33.8247 23.7462C33.6826 23.7546 33.5404 23.765 33.3983 23.7776C33.2562 23.7901 33.1308 23.8026 33.0222 23.8152L32.9971 23.4453C33.0974 23.4244 33.2186 23.4035 33.3607 23.3826C33.5028 23.3617 33.6512 23.345 33.8059 23.3324C33.9605 23.3157 34.1026 23.3073 34.2322 23.3073C34.4704 23.3073 34.6648 23.345 34.8153 23.4202C34.9657 23.4912 35.0744 23.602 35.1413 23.7525C35.2124 23.8988 35.2479 24.0869 35.2479 24.3168V25.903C35.2562 25.9949 35.2918 26.0618 35.3545 26.1036C35.4213 26.1454 35.5049 26.1726 35.6053 26.1851L35.5864 26.5676C35.4945 26.5676 35.4109 26.5613 35.3357 26.5487C35.2604 26.5404 35.1894 26.5258 35.1225 26.5049C35.0682 26.484 35.0159 26.4589 34.9657 26.4296C34.9198 26.4004 34.8738 26.3648 34.8278 26.323C34.7484 26.3565 34.646 26.392 34.5206 26.4296C34.3994 26.4672 34.2677 26.4986 34.1256 26.5237C33.9877 26.5529 33.8498 26.5676 33.7118 26.5676ZM33.7933 26.16C33.9062 26.16 34.0232 26.1496 34.1444 26.1287C34.2656 26.1078 34.3806 26.0827 34.4893 26.0534C34.5979 26.0242 34.6878 25.997 34.7589 25.9719V24.95L33.8498 25.0378C33.6617 25.0545 33.5258 25.1088 33.4422 25.2008C33.3628 25.2927 33.3231 25.4244 33.3231 25.5958C33.3231 25.7713 33.3628 25.9092 33.4422 26.0096C33.5216 26.1099 33.6387 26.16 33.7933 26.16Z" fill="#FFFFFF"/>
<path d="M37.622 26.5049V22.1725H40.2239V22.6177H38.1235V24.2854H39.8978V24.7305H38.1235V26.5049H37.622Z" fill="#FFFFFF"/>
<path d="M40.9183 26.5049V22.1725H41.8274L43.0249 25.8089L44.2286 22.1725H45.1377V26.5049H44.6362V22.7055H44.5421L43.307 26.3481H42.749L41.5139 22.7055H41.4198V26.5049H40.9183Z" fill="#FFFFFF"/>
<path d="M9.60303 26.5049L10.788 22.1725H11.8726L13.0513 26.5049H12.5498L12.2425 25.4077H10.4118L10.1046 26.5049H9.60303ZM10.5184 24.9625H12.136L11.4902 22.5989H11.1642L10.5184 24.9625Z" fill="#FFFFFF"/>
<path d="M13.6828 26.5049V22.0095H14.1656V26.5049H13.6828Z" fill="#FFFFFF"/>
<path d="M15.0616 25.0064V24.555H16.9613V25.0064H15.0616Z" fill="#FFFFFF"/>
<path d="M17.9129 26.5049V22.1725H18.8471L20.4772 26.0597H20.6026V22.1725H21.1042V26.5049H20.1888L18.5336 22.6177H18.4145V26.5049H17.9129Z" fill="#FFFFFF"/>
<path d="M21.7047 33.6123V30.4023L20.7267 30.9665L20.4383 30.3458L21.8113 29.4744H22.5574V33.6123H21.7047Z" fill="#FFFFFF"/>
<path d="M25.1828 33.6813C24.9153 33.6813 24.6833 33.6458 24.4869 33.5747C24.2904 33.4995 24.1274 33.3804 23.9979 33.2173C23.8725 33.0502 23.7763 32.8328 23.7095 32.5653C23.6468 32.2978 23.6154 31.9697 23.6154 31.581C23.6154 31.1797 23.6468 30.8391 23.7095 30.559C23.7763 30.279 23.8746 30.0554 24.0041 29.8882C24.1337 29.7168 24.2946 29.5935 24.4869 29.5183C24.6833 29.443 24.9132 29.4054 25.1766 29.4054C25.4482 29.4054 25.6823 29.443 25.8788 29.5183C26.0752 29.5935 26.2361 29.7168 26.3615 29.8882C26.4911 30.0554 26.5851 30.279 26.6437 30.559C26.7064 30.8349 26.7377 31.1755 26.7377 31.581C26.7377 32.0951 26.6813 32.5068 26.5684 32.8161C26.4597 33.1212 26.2905 33.3427 26.0606 33.4807C25.8307 33.6144 25.5381 33.6813 25.1828 33.6813ZM25.1828 32.954C25.2999 32.954 25.4002 32.9352 25.4838 32.8976C25.5715 32.8558 25.6447 32.7847 25.7032 32.6844C25.7617 32.5841 25.8035 32.4441 25.8286 32.2644C25.8579 32.0846 25.8725 31.8568 25.8725 31.581C25.8725 31.2884 25.8579 31.048 25.8286 30.86C25.8035 30.6719 25.7638 30.5256 25.7095 30.4211C25.6551 30.3124 25.5841 30.2372 25.4963 30.1954C25.4085 30.1494 25.304 30.1264 25.1828 30.1264C25.0616 30.1264 24.9571 30.1494 24.8693 30.1954C24.7816 30.2372 24.7084 30.3103 24.6499 30.4148C24.5956 30.5193 24.5538 30.6677 24.5245 30.86C24.4953 31.048 24.4806 31.2905 24.4806 31.5872C24.4806 31.8631 24.4953 32.0909 24.5245 32.2706C24.558 32.4504 24.6039 32.5904 24.6624 32.6907C24.721 32.7868 24.792 32.8558 24.8756 32.8976C24.9634 32.9352 25.0658 32.954 25.1828 32.954Z" fill="#FFFFFF"/>
<path d="M28.7172 33.6813C28.5584 33.6813 28.387 33.6688 28.2031 33.6437C28.0192 33.6228 27.8416 33.5956 27.6702 33.5622C27.4988 33.5287 27.3525 33.4995 27.2313 33.4744L27.3066 32.8349C27.4194 32.8516 27.5532 32.8725 27.7078 32.8976C27.8625 32.9185 28.0213 32.9352 28.1843 32.9478C28.3473 32.9603 28.4957 32.9666 28.6295 32.9666C28.8426 32.9666 29.0119 32.9122 29.1373 32.8036C29.2627 32.6907 29.3254 32.5277 29.3254 32.3145C29.3254 32.1682 29.2982 32.0533 29.2439 31.9697C29.1937 31.8861 29.1185 31.8276 29.0182 31.7941C28.922 31.7565 28.8092 31.7377 28.6796 31.7377C28.5793 31.7377 28.479 31.7482 28.3787 31.7691C28.2784 31.7858 28.1843 31.8088 28.0965 31.838C28.0088 31.8631 27.9377 31.8903 27.8834 31.9195L27.3191 31.8318L27.4194 29.4744H30.0088V30.233H28.0965L28.015 31.1546C28.0736 31.1296 28.1467 31.1045 28.2345 31.0794C28.3223 31.0501 28.4163 31.0251 28.5166 31.0042C28.6211 30.9833 28.7214 30.9728 28.8176 30.9728C29.106 30.9728 29.3505 31.0125 29.5511 31.0919C29.7517 31.1714 29.9043 31.303 30.0088 31.4869C30.1175 31.6708 30.1718 31.9216 30.1718 32.2393C30.1718 32.5695 30.1112 32.8412 29.99 33.0543C29.8729 33.2633 29.7058 33.4201 29.4884 33.5246C29.2752 33.6291 29.0182 33.6813 28.7172 33.6813Z" fill="#FFFFFF"/>
<path d="M30.7847 33.6123V32.6844H31.6562V33.6123H30.7847Z" fill="#FFFFFF"/>
<path d="M33.8373 33.6123V30.4023L32.8593 30.9665L32.5708 30.3458L33.9439 29.4744H34.69V33.6123H33.8373Z" fill="#FFFFFF"/>
<path d="M37.346 33.6123V29.3302H40.1109V30.0574H38.2112V31.349H39.7661V32.0763H38.2112V33.6123H37.346Z" fill="#FFFFFF"/>
<path d="M40.6736 33.6123V29.3302H42.0655L42.9307 32.1891L43.7771 29.3302H45.1878V33.6123H44.3226V30.4399H44.2348L43.3382 33.4995H42.5232L41.6266 30.4399H41.5388V33.6123H40.6736Z" fill="#FFFFFF"/>
</svg>
